<?xml version="1.0" encoding="iso-8859-1"?>
<!-- Generator: Adobe Illustrator 17.1.0, SVG Export Plug-In . SVG Version: 6.00 Build 0)  -->
<!DOCTYPE svg PUBLIC "-//W3C//DTD SVG 1.1//EN" "http://www.w3.org/Graphics/SVG/1.1/DTD/svg11.dtd">
<svg version="1.1" xmlns="http://www.w3.org/2000/svg" xmlns:xlink="http://www.w3.org/1999/xlink" x="0px" y="0px"
	 viewBox="0 0 64 64" style="enable-background:new 0 0 64 64;" xml:space="preserve">
<g id="imagenes">
</g>
<g id="iconos">
	<polygon points="48.333,35.074 44.523,40.981 42,39.963 33.208,56 43.537,56 48.063,50 51.949,50 56.107,56 59.608,56
		51.594,35.958 	"/>
	<polygon points="51.426,51 48.562,51 44.79,56 54.891,56 	"/>
	<path d="M7.014,46.401L4.043,56h4.125l3.3-9.56L12.41,39h3.143l2.828,7.71L16.653,56h4.003l1.968-10.522l-1.968-5.546l-0.715-2.509
		l10.83,6.136l-2.032,3.528l4.719,2.719l4.992-8.665l-4.719-2.719l-1.961,3.404L19.16,34.682l-0.68-2.388l1.237-5.011l0.533,4.58
		l0.856,2.223l3.378,1.975l-1.401-4.978L22,21.519l-3.5-0.144l-0.615-1.692c2.345-0.479,4.11-2.5,4.24-4.954l-10.536-1.397
		c-0.077,0.36-0.121,0.733-0.121,1.116c0,1.849,0.94,3.478,2.368,4.437l-0.093-0.01l-2.109,1.773l-2.702-0.227L3,25.607V33.5
		l4.712,1.164L7.014,46.401z M6,30.633v-2.357l2-1.827v4.634L6,30.633z"/>
	<path d="M22.079,13.714l1.601,0.212c0.213-4.759-1.855-7.873-5.599-8.369c-0.307-0.041-0.611-0.061-0.912-0.061
		c-3.316,0-5.729,2.427-6.674,6.682l1.395,0.185L22.079,13.714z"/>
</g>
</svg>
